<svg height="100" width="100" xmlns="http://www.w3.org/2000/svg"><g fill-rule="evenodd" stroke="#fff" stroke-width=".42" transform="matrix(6.23155274765 -3.30087916849 3.30087916849 6.23155274765 -30.53905109251 23.36046624225)"><path d="m5.67 1.06c1.08.35 2.37 3.11 1.68 4.45-.7 1.34-2.57.66-2.95-.38-.26-.71.29-3.17 1.27-4.07z"/><path d="m10.45 2.23c1.05.73 2.27 3.16 1.35 4.16-.61.65-1.9.88-2.52.24-.78-.82-.01-3.64 1.17-4.4z"/><path d="m13.67 6.13c1.48 1.08 1.82 3.27 1.14 4.34-.53.82-2.49.31-2.6-.69-.13-1.13.59-2.62 1.46-3.65z"/><path d="m2.67 5.89c.85.78 2.25 3.02 1.34 4.26-.62.85-2.18.88-2.67-.3-.44-1.06.27-2.98 1.33-3.96z"/><path d="m6.48 8.65c.91.09 1.01.53 1.75.63.8.1 1.16-.44 1.84-.46 1.14-.04 2.44 3.05 2.87 4.41-.65 1.42-1.73 2.49-3.16.78-.68.78-1.75 1.38-2.85.16-1.2 1.38-2.95.24-3.15-1.22.53-1.34 1.79-4.4 2.7-4.3z"/></g></svg>